<?xml version="1.0" encoding="UTF-8" standalone="no"?>
<!-- Created with Inkscape (http://www.inkscape.org/) -->

<svg
   width="100"
   height="100"
   viewBox="0 0 100 100"
   version="1.1"
   id="svg1"
   inkscape:export-filename="logo.svg"
   inkscape:export-xdpi="96"
   inkscape:export-ydpi="96"
   xmlns:inkscape="http://www.inkscape.org/namespaces/inkscape"
   xmlns:sodipodi="http://sodipodi.sourceforge.net/DTD/sodipodi-0.dtd"
   xmlns="http://www.w3.org/2000/svg"
   xmlns:svg="http://www.w3.org/2000/svg">
  <sodipodi:namedview
     id="namedview1"
     pagecolor="#505050"
     bordercolor="#eeeeee"
     borderopacity="1"
     inkscape:showpageshadow="0"
     inkscape:pageopacity="0"
     inkscape:pagecheckerboard="0"
     inkscape:deskcolor="#505050"
     inkscape:document-units="px"
     showgrid="true"
     inkscape:zoom="10.417342"
     inkscape:cx="31.581952"
     inkscape:cy="46.173005"
     inkscape:window-width="3440"
     inkscape:window-height="1387"
     inkscape:window-x="0"
     inkscape:window-y="25"
     inkscape:window-maximized="1"
     inkscape:current-layer="layer1">
    <inkscape:grid
       id="grid1"
       units="px"
       originx="0"
       originy="0"
       spacingx="1"
       spacingy="1"
       empcolor="#0099e5"
       empopacity="0.30196078"
       color="#0099e5"
       opacity="0.14901961"
       empspacing="5"
       enabled="true"
       visible="true" />
    <inkscape:page
       x="0"
       y="0"
       width="100"
       height="100"
       id="page2"
       margin="0"
       bleed="0" />
  </sodipodi:namedview>
  <defs
     id="defs1" />
  <g
     inkscape:label="Layer 1"
     inkscape:groupmode="layer"
     id="layer1">
    <rect
       style="fill:#000000;stroke-width:0.67242;stroke-dasharray:none"
       id="rect12"
       width="60.517776"
       height="13.448396"
       x="20.526123"
       y="29.066065" />
    <path
       id="rect13"
       style="fill:#fbc986;fill-opacity:1;stroke:#3f3a57;stroke-width:2.01726;stroke-dasharray:none;stroke-opacity:1"
       d="m 87.768091,49.238657 h -1.589115 c -2.934248,0 -4.400489,-1.34484 -8.801867,-1.34484 -4.401376,0 -8.80274,2.688997 -13.204117,1.34484 -4.401377,-1.344159 -4.400196,-1.344159 -11.735825,0 -7.335628,1.344157 -7.33678,1.343476 -14.67241,-1.34484 -7.335629,-2.688317 -7.335615,1.343478 -13.204117,-1.344839 -4.780176,-2.189763 -4.69623,0.970544 -10.842768,1.491931 v 7.921945 h 74.050219 z" />
    <path
       id="path18"
       style="fill:#fda3d1;fill-opacity:1;stroke:#3f3a57;stroke-width:2.01726;stroke-dasharray:none;stroke-opacity:1"
       d="m 13.717872,42.514459 v 5.52645 c 6.146538,-0.521387 6.062592,-3.681694 10.842768,-1.491931 5.868502,2.688317 5.868488,-1.343478 13.204117,1.344839 7.33563,2.688316 7.336782,2.688997 14.67241,1.34484 7.335629,-1.344159 7.334448,-1.344159 11.735825,0 4.401377,1.344157 8.802741,-1.34484 13.204117,-1.34484 4.401378,0 5.867619,1.34484 8.801867,1.34484 h 1.589115 v -6.724198 z" />
    <path
       id="rect14"
       style="fill:#fbc986;fill-opacity:1;stroke:#3f3a57;stroke-width:2.01726;stroke-dasharray:none;stroke-opacity:1"
       d="m 94.492293,61.578609 -5.686674,1.108442 C 81.903713,64.030818 81.901906,60 75,60 c -6.901907,0 -6.901086,2.687051 -13.80299,2.687051 -6.901907,0 -6.901086,-2.687535 -13.802991,0 -6.901907,2.687534 -6.903711,-0.0011 -13.805618,-1.344839 -6.901904,-1.343769 -6.901084,-1.342696 -13.802991,1.344839 -5.447887,2.121354 -10.7486243,0.929185 -12.802241,0.317823 v 19.854769 h 87.509124 z" />
    <path
       id="path19"
       style="fill:#fda3d1;fill-opacity:1;stroke:#3f3a57;stroke-width:2.01726;stroke-dasharray:none;stroke-opacity:1"
       d="m 6.983169,55.962854 v 7.04202 c 2.0536167,0.611362 7.354354,1.803531 12.802241,-0.317823 6.901907,-2.687535 6.901087,-2.688608 13.802991,-1.344839 6.901907,1.343767 6.903711,4.032373 13.805618,1.344839 6.901905,-2.687535 6.901084,0 13.802991,0 C 68.098914,62.687051 68.098093,60 75,60 c 6.901906,0 6.903713,4.030818 13.805619,2.687051 l 5.686674,-1.108442 v -5.615755 z" />
    <path
       style="fill:#000000;stroke-width:0.67242;stroke-dasharray:none"
       d="m 20.659956,35.797497 v -6.597598 h 30.170269 30.170271 v 6.597598 6.5976 H 50.830225 20.659956 Z"
       id="path14" />
    <path
       style="fill:#000000;stroke-width:0.67242;stroke-dasharray:none"
       d="m 20.659956,35.797497 v -6.597598 h 30.170269 30.170271 v 6.597598 6.5976 H 50.830225 20.659956 Z"
       id="path15" />
    <path
       id="path16"
       style="fill:#fbc986;fill-opacity:1;stroke:#3f3a57;stroke-width:2.01726;stroke-dasharray:none;stroke-opacity:1"
       d="m 80.999245,33.111089 -6.007125,1.334334 c -6.051776,1.344839 -4.840896,-1.34484 -10.892674,-1.34484 -6.051777,0 -4.840897,1.34484 -10.892675,0 -6.051777,-1.344839 -8.473013,2.689679 -13.314435,1.34484 -4.841422,-1.34484 -4.840898,-1.34484 -10.892675,0 -5.255312,1.167847 -7.768059,-0.70248 -8.339581,-1.216135 v 2.568853 6.598119 h 30.169582 30.169583 v -6.598119 z" />
    <path
       id="path17"
       style="fill:#fda3d1;fill-opacity:1;stroke:#3f3a57;stroke-width:2.01726;stroke-dasharray:none;stroke-opacity:1"
       d="m 20.66008,29.200023 v 4.029265 c 0.571522,0.513655 3.084269,2.383982 8.339581,1.216135 6.051777,-1.34484 6.051253,-1.34484 10.892675,0 4.841422,1.344839 7.262658,-2.689679 13.314435,-1.34484 6.051778,1.34484 4.840898,0 10.892675,0 6.051778,0 4.840898,2.689679 10.892674,1.34484 l 6.007125,-1.334334 V 29.200023 H 50.829662 Z" />
    <circle
       style="fill:#e8455a;fill-opacity:1;stroke:#3f3a57;stroke-width:2.01726;stroke-dasharray:none;stroke-opacity:1"
       id="path20"
       cx="50.785011"
       cy="25.703966"
       r="3.3620989" />
    <path
       style="fill:none;fill-opacity:1;stroke:#3f3a57;stroke-width:2.01726;stroke-dasharray:none;stroke-opacity:1"
       d="m 50.78501,22.341867 c 0,0 -2.017259,-2.689679 0.672419,-4.034518 2.689679,-1.34484 2.689679,-1.34484 2.689679,-1.34484"
       id="path24" />
  </g>
</svg>
